<mxfile host="app.diagrams.net" modified="2020-12-16T07:15:47.053Z" agent="5.0 (Windows)" etag="Uo5pbzwSTkQ-ci9LGMsZ" version="14.0.3" type="github">
  <diagram id="kgpKYQtTHZ0yAKxKKP6v" name="Page-1">
    <mxGraphModel dx="1422" dy="773" grid="1" gridSize="10" guides="1" tooltips="1" connect="1" arrows="1" fold="1" page="1" pageScale="1" pageWidth="850" pageHeight="1100" math="0" shadow="0">
      <root>
        <mxCell id="0" />
        <mxCell id="1" parent="0" />
        <mxCell id="EnAMJL2eUIxCQ6h8DMGY-6" value="" style="rounded=0;whiteSpace=wrap;html=1;fillColor=#e1d5e7;strokeColor=#9673a6;shadow=0;" vertex="1" parent="1">
          <mxGeometry x="110" y="400" width="620" height="300" as="geometry" />
        </mxCell>
        <mxCell id="3nuBFxr9cyL0pnOWT2aG-1" value="PERK UP WITH A LATTE" style="shape=table;childLayout=tableLayout;rowLines=0;columnLines=0;startSize=40;html=1;whiteSpace=wrap;collapsible=0;recursiveResize=0;expand=0;fontStyle=1" parent="1" vertex="1">
          <mxGeometry x="100" y="70" width="670" height="300" as="geometry" />
        </mxCell>
        <mxCell id="3nuBFxr9cyL0pnOWT2aG-2" value="" style="edgeStyle=orthogonalEdgeStyle;rounded=0;orthogonalLoop=1;jettySize=auto;html=1;" parent="3nuBFxr9cyL0pnOWT2aG-1" source="3nuBFxr9cyL0pnOWT2aG-7" target="3nuBFxr9cyL0pnOWT2aG-17" edge="1">
          <mxGeometry relative="1" as="geometry" />
        </mxCell>
        <mxCell id="3nuBFxr9cyL0pnOWT2aG-3" value="Customer" style="swimlane;horizontal=0;points=[[0,0.5],[1,0.5]];portConstraint=eastwest;startSize=40;html=1;whiteSpace=wrap;collapsible=0;recursiveResize=0;expand=0;" parent="3nuBFxr9cyL0pnOWT2aG-1" vertex="1">
          <mxGeometry y="40" width="670" height="180" as="geometry" />
        </mxCell>
        <mxCell id="3nuBFxr9cyL0pnOWT2aG-4" value="Feel tired" style="swimlane;connectable=0;startSize=40;html=1;whiteSpace=wrap;collapsible=0;recursiveResize=0;expand=0;" parent="3nuBFxr9cyL0pnOWT2aG-3" vertex="1">
          <mxGeometry x="40" width="130" height="180" as="geometry" />
        </mxCell>
        <mxCell id="3nuBFxr9cyL0pnOWT2aG-5" style="edgeStyle=orthogonalEdgeStyle;rounded=0;orthogonalLoop=1;jettySize=auto;html=1;" parent="3nuBFxr9cyL0pnOWT2aG-4" source="3nuBFxr9cyL0pnOWT2aG-6" target="3nuBFxr9cyL0pnOWT2aG-7" edge="1">
          <mxGeometry relative="1" as="geometry" />
        </mxCell>
        <mxCell id="3nuBFxr9cyL0pnOWT2aG-6" value="Start" style="rounded=1;whiteSpace=wrap;html=1;arcSize=50;" parent="3nuBFxr9cyL0pnOWT2aG-4" vertex="1">
          <mxGeometry x="20" y="60" width="90" height="40" as="geometry" />
        </mxCell>
        <mxCell id="3nuBFxr9cyL0pnOWT2aG-7" value="Find barista" style="rounded=0;whiteSpace=wrap;html=1;" parent="3nuBFxr9cyL0pnOWT2aG-4" vertex="1">
          <mxGeometry x="20" y="120" width="90" height="40" as="geometry" />
        </mxCell>
        <mxCell id="3nuBFxr9cyL0pnOWT2aG-8" value="Make transaction" style="swimlane;connectable=0;startSize=40;html=1;whiteSpace=wrap;collapsible=0;recursiveResize=0;expand=0;" parent="3nuBFxr9cyL0pnOWT2aG-3" vertex="1">
          <mxGeometry x="170" width="370" height="180" as="geometry" />
        </mxCell>
        <mxCell id="3nuBFxr9cyL0pnOWT2aG-9" value="Request latte" style="rounded=0;whiteSpace=wrap;html=1;" parent="3nuBFxr9cyL0pnOWT2aG-8" vertex="1">
          <mxGeometry x="20" y="120" width="90" height="40" as="geometry" />
        </mxCell>
        <mxCell id="3nuBFxr9cyL0pnOWT2aG-10" value="Buy latte" style="rounded=0;whiteSpace=wrap;html=1;" parent="3nuBFxr9cyL0pnOWT2aG-8" vertex="1">
          <mxGeometry x="150" y="120" width="90" height="40" as="geometry" />
        </mxCell>
        <mxCell id="3nuBFxr9cyL0pnOWT2aG-11" value="Feel perky" style="swimlane;connectable=0;startSize=40;html=1;whiteSpace=wrap;collapsible=0;recursiveResize=0;expand=0;" parent="3nuBFxr9cyL0pnOWT2aG-3" vertex="1">
          <mxGeometry x="540" width="130" height="180" as="geometry" />
        </mxCell>
        <mxCell id="3nuBFxr9cyL0pnOWT2aG-12" style="edgeStyle=orthogonalEdgeStyle;rounded=0;orthogonalLoop=1;jettySize=auto;html=1;" parent="3nuBFxr9cyL0pnOWT2aG-11" source="3nuBFxr9cyL0pnOWT2aG-13" target="3nuBFxr9cyL0pnOWT2aG-14" edge="1">
          <mxGeometry relative="1" as="geometry" />
        </mxCell>
        <mxCell id="3nuBFxr9cyL0pnOWT2aG-13" value="Drink latte" style="rounded=0;whiteSpace=wrap;html=1;" parent="3nuBFxr9cyL0pnOWT2aG-11" vertex="1">
          <mxGeometry x="20" y="60" width="90" height="40" as="geometry" />
        </mxCell>
        <mxCell id="3nuBFxr9cyL0pnOWT2aG-14" value="End" style="rounded=1;whiteSpace=wrap;html=1;arcSize=50;" parent="3nuBFxr9cyL0pnOWT2aG-11" vertex="1">
          <mxGeometry x="20" y="120" width="90" height="40" as="geometry" />
        </mxCell>
        <mxCell id="3nuBFxr9cyL0pnOWT2aG-15" value="Barista" style="swimlane;horizontal=0;points=[[0,0.5],[1,0.5]];portConstraint=eastwest;startSize=40;html=1;whiteSpace=wrap;collapsible=0;recursiveResize=0;expand=0;" parent="3nuBFxr9cyL0pnOWT2aG-1" vertex="1">
          <mxGeometry y="220" width="670" height="80" as="geometry" />
        </mxCell>
        <mxCell id="3nuBFxr9cyL0pnOWT2aG-16" value="" style="swimlane;connectable=0;startSize=0;html=1;whiteSpace=wrap;collapsible=0;recursiveResize=0;expand=0;" parent="3nuBFxr9cyL0pnOWT2aG-15" vertex="1">
          <mxGeometry x="40" width="130" height="80" as="geometry" />
        </mxCell>
        <mxCell id="3nuBFxr9cyL0pnOWT2aG-17" value="Greet customer" style="rounded=0;whiteSpace=wrap;html=1;" parent="3nuBFxr9cyL0pnOWT2aG-16" vertex="1">
          <mxGeometry x="20" y="20" width="90" height="40" as="geometry" />
        </mxCell>
        <mxCell id="3nuBFxr9cyL0pnOWT2aG-18" value="" style="swimlane;connectable=0;startSize=0;html=1;whiteSpace=wrap;collapsible=0;recursiveResize=0;expand=0;" parent="3nuBFxr9cyL0pnOWT2aG-15" vertex="1">
          <mxGeometry x="170" width="370" height="80" as="geometry" />
        </mxCell>
        <mxCell id="3nuBFxr9cyL0pnOWT2aG-19" value="" style="edgeStyle=orthogonalEdgeStyle;rounded=0;orthogonalLoop=1;jettySize=auto;html=1;" parent="3nuBFxr9cyL0pnOWT2aG-18" source="3nuBFxr9cyL0pnOWT2aG-20" target="3nuBFxr9cyL0pnOWT2aG-22" edge="1">
          <mxGeometry relative="1" as="geometry" />
        </mxCell>
        <mxCell id="3nuBFxr9cyL0pnOWT2aG-20" value="Accept&lt;br&gt;payment" style="rounded=0;whiteSpace=wrap;html=1;" parent="3nuBFxr9cyL0pnOWT2aG-18" vertex="1">
          <mxGeometry x="150" y="20" width="90" height="40" as="geometry" />
        </mxCell>
        <mxCell id="3nuBFxr9cyL0pnOWT2aG-21" value="Write details&lt;br&gt;on cup" style="shape=document;whiteSpace=wrap;html=1;boundedLbl=1;" parent="3nuBFxr9cyL0pnOWT2aG-18" vertex="1">
          <mxGeometry x="20" y="10" width="90" height="60" as="geometry" />
        </mxCell>
        <mxCell id="3nuBFxr9cyL0pnOWT2aG-22" value="Make latte" style="shape=process;whiteSpace=wrap;html=1;backgroundOutline=1;" parent="3nuBFxr9cyL0pnOWT2aG-18" vertex="1">
          <mxGeometry x="260" y="20" width="90" height="40" as="geometry" />
        </mxCell>
        <mxCell id="3nuBFxr9cyL0pnOWT2aG-23" value="" style="swimlane;connectable=0;startSize=0;html=1;whiteSpace=wrap;collapsible=0;recursiveResize=0;expand=0;" parent="3nuBFxr9cyL0pnOWT2aG-15" vertex="1">
          <mxGeometry x="540" width="130" height="80" as="geometry" />
        </mxCell>
        <mxCell id="3nuBFxr9cyL0pnOWT2aG-24" value="" style="edgeStyle=orthogonalEdgeStyle;rounded=0;orthogonalLoop=1;jettySize=auto;html=1;" parent="3nuBFxr9cyL0pnOWT2aG-1" source="3nuBFxr9cyL0pnOWT2aG-17" target="3nuBFxr9cyL0pnOWT2aG-9" edge="1">
          <mxGeometry relative="1" as="geometry">
            <Array as="points">
              <mxPoint x="160" y="260" />
              <mxPoint x="160" y="180" />
            </Array>
          </mxGeometry>
        </mxCell>
        <mxCell id="3nuBFxr9cyL0pnOWT2aG-25" value="" style="edgeStyle=orthogonalEdgeStyle;rounded=0;orthogonalLoop=1;jettySize=auto;html=1;" parent="3nuBFxr9cyL0pnOWT2aG-1" source="3nuBFxr9cyL0pnOWT2aG-9" target="3nuBFxr9cyL0pnOWT2aG-21" edge="1">
          <mxGeometry relative="1" as="geometry" />
        </mxCell>
        <mxCell id="3nuBFxr9cyL0pnOWT2aG-26" value="" style="edgeStyle=orthogonalEdgeStyle;rounded=0;orthogonalLoop=1;jettySize=auto;html=1;" parent="3nuBFxr9cyL0pnOWT2aG-1" source="3nuBFxr9cyL0pnOWT2aG-21" target="3nuBFxr9cyL0pnOWT2aG-10" edge="1">
          <mxGeometry relative="1" as="geometry">
            <Array as="points">
              <mxPoint x="300" y="260" />
              <mxPoint x="300" y="180" />
            </Array>
          </mxGeometry>
        </mxCell>
        <mxCell id="3nuBFxr9cyL0pnOWT2aG-27" value="" style="edgeStyle=orthogonalEdgeStyle;rounded=0;orthogonalLoop=1;jettySize=auto;html=1;" parent="3nuBFxr9cyL0pnOWT2aG-1" source="3nuBFxr9cyL0pnOWT2aG-10" target="3nuBFxr9cyL0pnOWT2aG-20" edge="1">
          <mxGeometry relative="1" as="geometry" />
        </mxCell>
        <mxCell id="3nuBFxr9cyL0pnOWT2aG-28" style="edgeStyle=orthogonalEdgeStyle;rounded=0;orthogonalLoop=1;jettySize=auto;html=1;" parent="3nuBFxr9cyL0pnOWT2aG-1" source="3nuBFxr9cyL0pnOWT2aG-22" target="3nuBFxr9cyL0pnOWT2aG-13" edge="1">
          <mxGeometry relative="1" as="geometry">
            <Array as="points">
              <mxPoint x="530" y="260" />
              <mxPoint x="530" y="120" />
            </Array>
          </mxGeometry>
        </mxCell>
        <mxCell id="EnAMJL2eUIxCQ6h8DMGY-7" value="" style="rounded=0;whiteSpace=wrap;html=1;shadow=0;fillColor=#647687;strokeColor=#314354;fontColor=#ffffff;" vertex="1" parent="1">
          <mxGeometry x="110" y="710" width="620" height="90" as="geometry" />
        </mxCell>
        <mxCell id="EnAMJL2eUIxCQ6h8DMGY-8" value="Radio Driver" style="rounded=1;whiteSpace=wrap;html=1;shadow=0;fillColor=#dae8fc;strokeColor=#6c8ebf;" vertex="1" parent="1">
          <mxGeometry x="140" y="740" width="100" height="40" as="geometry" />
        </mxCell>
        <mxCell id="EnAMJL2eUIxCQ6h8DMGY-10" value="&lt;font color=&quot;#FFFFFF&quot;&gt;&lt;b&gt;Kernel Space&lt;/b&gt;&lt;/font&gt;" style="text;html=1;fillColor=none;align=center;verticalAlign=middle;whiteSpace=wrap;rounded=0;shadow=0;strokeColor=#000000;" vertex="1" parent="1">
          <mxGeometry x="650" y="710" width="80" height="30" as="geometry" />
        </mxCell>
        <mxCell id="EnAMJL2eUIxCQ6h8DMGY-11" value="GNSS Driver" style="rounded=1;whiteSpace=wrap;html=1;shadow=0;fillColor=#dae8fc;strokeColor=#6c8ebf;" vertex="1" parent="1">
          <mxGeometry x="270" y="740" width="100" height="40" as="geometry" />
        </mxCell>
        <mxCell id="EnAMJL2eUIxCQ6h8DMGY-12" value="CAN Driver" style="rounded=1;whiteSpace=wrap;html=1;shadow=0;fillColor=#dae8fc;strokeColor=#6c8ebf;" vertex="1" parent="1">
          <mxGeometry x="402.5" y="740" width="100" height="40" as="geometry" />
        </mxCell>
        <mxCell id="EnAMJL2eUIxCQ6h8DMGY-14" value="Ohters" style="rounded=1;whiteSpace=wrap;html=1;shadow=0;fillColor=#dae8fc;strokeColor=#6c8ebf;" vertex="1" parent="1">
          <mxGeometry x="530" y="740" width="100" height="40" as="geometry" />
        </mxCell>
        <mxCell id="EnAMJL2eUIxCQ6h8DMGY-15" value="" style="rounded=0;whiteSpace=wrap;html=1;shadow=0;strokeColor=#3A5431;fillColor=#6d8764;fontColor=#ffffff;" vertex="1" parent="1">
          <mxGeometry x="110" y="810" width="620" height="80" as="geometry" />
        </mxCell>
        <mxCell id="EnAMJL2eUIxCQ6h8DMGY-16" value="&lt;b&gt;&lt;font color=&quot;#FFFFFF&quot;&gt;Hardware&lt;/font&gt;&lt;/b&gt;" style="text;html=1;fillColor=none;align=center;verticalAlign=middle;whiteSpace=wrap;rounded=0;shadow=0;strokeColor=#000000;" vertex="1" parent="1">
          <mxGeometry x="650" y="810" width="80" height="30" as="geometry" />
        </mxCell>
        <mxCell id="EnAMJL2eUIxCQ6h8DMGY-18" value="V2X module" style="rounded=1;whiteSpace=wrap;html=1;shadow=0;fillColor=#dae8fc;strokeColor=#6c8ebf;" vertex="1" parent="1">
          <mxGeometry x="140" y="830" width="100" height="40" as="geometry" />
        </mxCell>
        <mxCell id="EnAMJL2eUIxCQ6h8DMGY-19" value="GNSS module" style="rounded=1;whiteSpace=wrap;html=1;shadow=0;fillColor=#dae8fc;strokeColor=#6c8ebf;" vertex="1" parent="1">
          <mxGeometry x="270" y="830" width="100" height="40" as="geometry" />
        </mxCell>
        <mxCell id="EnAMJL2eUIxCQ6h8DMGY-20" value="CAN" style="rounded=1;whiteSpace=wrap;html=1;shadow=0;fillColor=#dae8fc;strokeColor=#6c8ebf;" vertex="1" parent="1">
          <mxGeometry x="397.5" y="830" width="105" height="40" as="geometry" />
        </mxCell>
        <mxCell id="EnAMJL2eUIxCQ6h8DMGY-21" value="Others" style="rounded=1;whiteSpace=wrap;html=1;shadow=0;fillColor=#dae8fc;strokeColor=#6c8ebf;" vertex="1" parent="1">
          <mxGeometry x="530" y="830" width="100" height="40" as="geometry" />
        </mxCell>
        <mxCell id="EnAMJL2eUIxCQ6h8DMGY-23" value="" style="endArrow=none;dashed=1;html=1;dashPattern=1 3;strokeWidth=2;anchorPointDirection=0;noJump=1;" edge="1" parent="1">
          <mxGeometry width="50" height="50" relative="1" as="geometry">
            <mxPoint x="70" y="800" as="sourcePoint" />
            <mxPoint x="760" y="800" as="targetPoint" />
          </mxGeometry>
        </mxCell>
        <mxCell id="EnAMJL2eUIxCQ6h8DMGY-27" value="&lt;div&gt;Raw Data&lt;/div&gt;&lt;div&gt;Distribute Service&lt;/div&gt;" style="rounded=1;whiteSpace=wrap;html=1;shadow=0;strokeColor=#6c8ebf;fillColor=#dae8fc;" vertex="1" parent="1">
          <mxGeometry x="120" y="620" width="130" height="60" as="geometry" />
        </mxCell>
        <mxCell id="EnAMJL2eUIxCQ6h8DMGY-28" value="DDS Middleware" style="rounded=1;whiteSpace=wrap;html=1;shadow=0;strokeColor=#b85450;fillColor=#f8cecc;" vertex="1" parent="1">
          <mxGeometry x="260" y="620" width="460" height="60" as="geometry" />
        </mxCell>
        <mxCell id="EnAMJL2eUIxCQ6h8DMGY-29" value="" style="rounded=0;whiteSpace=wrap;html=1;shadow=0;strokeColor=#d79b00;fillColor=#ffe6cc;" vertex="1" parent="1">
          <mxGeometry x="120" y="470" width="600" height="130" as="geometry" />
        </mxCell>
        <mxCell id="EnAMJL2eUIxCQ6h8DMGY-30" value="V2X Domain" style="text;html=1;fillColor=none;align=center;verticalAlign=middle;whiteSpace=wrap;rounded=0;shadow=0;strokeColor=#000000;" vertex="1" parent="1">
          <mxGeometry x="640" y="470" width="80" height="30" as="geometry" />
        </mxCell>
      </root>
    </mxGraphModel>
  </diagram>
</mxfile>
